<svg xmlns="http://www.w3.org/2000/svg" viewBox="0 0 1012 1012" width="1012" height="1012">
  <g fill="#E79B11" fill-rule="evenodd">
    <path d="M 213 224 L 213 231 L 400 548 L 417 566 L 446 586 L 470 595 L 487 598 L 512 598 L 537 594 L 569 578 L 583 566 L 591 555 L 589 552 L 575 548 L 547 532 L 522 509 L 510 494 L 394 298 L 376 265 L 355 244 L 329 228 L 302 220 L 219 220 Z"/><path d="M 406 220 L 405 225 L 463 317 L 488 362 L 499 378 L 504 379 L 576 265 L 576 260 L 539 225 L 526 219 Z"/><path d="M 476 60 L 454 71 L 436 90 L 423 116 L 419 148 L 421 151 L 455 150 L 464 146 L 467 142 L 471 123 L 483 110 L 490 106 L 506 104 L 523 111 L 530 117 L 536 128 L 538 138 L 535 149 L 526 164 L 493 195 L 488 212 L 510 213 L 533 209 L 552 198 L 567 183 L 577 167 L 581 156 L 583 138 L 581 115 L 577 103 L 566 85 L 554 73 L 533 61 L 512 56 L 494 56 Z"/>
  </g>
  <g fill="#1E2941" fill-rule="evenodd">
    <path d="M 587 731 L 584 734 L 584 879 L 589 882 L 634 881 L 636 879 L 636 734 L 628 730 Z"/><path d="M 10 731 L 8 739 L 19 762 L 64 879 L 81 882 L 122 880 L 164 768 L 178 738 L 178 733 L 173 730 L 135 730 L 125 734 L 112 768 L 96 822 L 94 823 L 85 802 L 80 781 L 63 733 L 57 730 Z"/><path d="M 706 730 L 679 745 L 668 756 L 660 769 L 652 793 L 652 815 L 657 834 L 665 849 L 678 863 L 702 876 L 724 879 L 738 878 L 758 872 L 770 864 L 772 868 L 765 887 L 758 894 L 737 902 L 709 901 L 695 898 L 679 891 L 672 891 L 670 894 L 670 930 L 698 940 L 717 942 L 747 942 L 777 936 L 793 928 L 804 918 L 812 907 L 820 887 L 823 872 L 823 733 L 816 730 L 777 731 L 773 734 L 770 741 L 752 730 L 745 730 L 739 727 L 721 727 L 714 730 Z M 734 769 L 756 773 L 765 781 L 771 795 L 772 809 L 765 826 L 758 833 L 748 838 L 733 839 L 720 834 L 711 824 L 706 808 L 708 791 L 712 783 L 723 773 Z"/><path d="M 449 735 L 414 727 L 389 727 L 362 734 L 352 740 L 337 757 L 333 772 L 334 784 L 340 799 L 348 807 L 365 817 L 403 829 L 409 835 L 409 840 L 404 846 L 382 848 L 338 837 L 336 839 L 335 874 L 337 876 L 361 884 L 395 886 L 417 884 L 430 880 L 451 866 L 460 848 L 460 825 L 455 813 L 446 803 L 433 795 L 407 786 L 400 786 L 390 781 L 385 774 L 389 768 L 399 764 L 422 765 L 436 769 L 443 774 L 450 774 L 451 737 Z"/><path d="M 195 747 L 185 758 L 177 772 L 171 801 L 176 837 L 188 858 L 205 873 L 230 884 L 287 884 L 312 876 L 315 871 L 313 835 L 307 834 L 291 842 L 275 846 L 252 846 L 235 838 L 224 823 L 226 819 L 319 819 L 323 817 L 324 780 L 316 760 L 306 747 L 287 734 L 262 727 L 242 727 L 228 730 L 208 738 Z M 225 787 L 225 783 L 232 772 L 245 764 L 258 764 L 267 768 L 271 772 L 276 784 L 273 788 Z"/><path d="M 486 694 L 483 698 L 484 728 L 481 731 L 465 731 L 461 734 L 460 739 L 461 767 L 465 769 L 482 769 L 484 771 L 484 847 L 488 862 L 497 874 L 515 884 L 543 886 L 563 883 L 568 879 L 567 845 L 560 843 L 554 846 L 544 846 L 534 835 L 533 770 L 562 769 L 567 767 L 568 733 L 563 730 L 535 731 L 533 729 L 533 689 L 530 686 L 521 686 Z"/><path d="M 849 671 L 848 879 L 853 882 L 897 881 L 899 879 L 899 798 L 901 787 L 910 774 L 928 769 L 942 777 L 948 793 L 949 880 L 956 882 L 994 882 L 999 880 L 1000 779 L 995 760 L 987 746 L 972 734 L 948 727 L 922 730 L 901 743 L 899 669 L 895 666 L 885 666 L 878 669 Z"/><path d="M 600 666 L 592 670 L 585 677 L 580 688 L 581 697 L 584 704 L 592 712 L 605 717 L 619 716 L 628 711 L 636 702 L 639 694 L 636 679 L 628 670 L 619 666 Z"/><path d="M 789 218 L 701 219 L 680 226 L 663 235 L 633 259 L 613 287 L 541 411 L 516 449 L 521 466 L 532 486 L 560 517 L 578 528 L 589 532 L 611 536 L 621 530 L 644 498 L 688 422 L 689 417 L 715 375 L 716 370 L 732 346 L 749 313 L 796 236 L 798 224 Z"/><path d="M 209 221 L 209 233 L 267 329 L 352 478 L 372 508 L 393 546 L 415 569 L 440 587 L 461 596 L 476 600 L 511 601 L 526 600 L 549 593 L 572 580 L 588 566 L 596 554 L 594 550 L 570 542 L 550 530 L 516 496 L 464 405 L 401 302 L 388 276 L 380 264 L 362 245 L 343 231 L 313 218 L 298 216 L 222 216 Z M 212 224 L 219 219 L 302 219 L 329 227 L 355 243 L 377 265 L 395 298 L 511 494 L 523 509 L 547 531 L 575 547 L 589 551 L 592 555 L 584 566 L 569 579 L 545 592 L 512 599 L 487 599 L 455 591 L 438 583 L 417 567 L 399 548 L 212 231 Z"/><path d="M 493 53 L 480 55 L 462 62 L 437 81 L 425 100 L 417 119 L 415 151 L 424 156 L 460 152 L 471 144 L 472 130 L 476 122 L 486 112 L 495 108 L 507 108 L 520 113 L 527 120 L 531 128 L 532 143 L 526 157 L 508 177 L 489 193 L 481 214 L 405 215 L 400 219 L 400 225 L 456 314 L 488 370 L 497 382 L 505 383 L 510 379 L 581 264 L 581 260 L 537 219 L 525 215 L 536 212 L 550 204 L 572 183 L 584 160 L 587 125 L 584 109 L 568 81 L 551 66 L 524 54 Z M 406 219 L 526 218 L 539 224 L 577 260 L 577 265 L 504 380 L 498 378 L 487 362 L 462 317 L 404 225 Z M 476 59 L 494 55 L 512 55 L 540 63 L 554 72 L 567 85 L 578 103 L 584 128 L 582 156 L 578 167 L 568 183 L 552 199 L 533 210 L 510 214 L 489 214 L 487 212 L 492 195 L 525 164 L 534 149 L 537 138 L 535 128 L 529 117 L 523 112 L 506 105 L 490 107 L 483 111 L 472 123 L 468 142 L 464 147 L 455 151 L 421 152 L 418 148 L 422 116 L 435 90 L 454 70 Z"/>
  </g>
</svg>
